<?xml version="1.0" standalone="no"?>
<!DOCTYPE svg PUBLIC "-//W3C//DTD SVG 20010904//EN"
 "http://www.w3.org/TR/2001/REC-SVG-20010904/DTD/svg10.dtd">
<svg version="1.0" xmlns="http://www.w3.org/2000/svg"
 width="2000.000000pt" height="1500.000000pt" viewBox="0 0 2000.000000 1500.000000"
 preserveAspectRatio="xMidYMid meet">

<g transform="translate(0.000000,1500.000000) scale(0.100000,-0.100000)"
fill="#000000" stroke="none">
<path d="M0 7500 l0 -7500 10000 0 10000 0 0 7500 0 7500 -10000 0 -10000 0 0
-7500z m14050 3382 c1224 -691 2237 -1270 2253 -1285 21 -23 27 -39 27 -72 0
-72 -4 -75 -298 -245 l-143 -82 193 -109 c210 -118 248 -149 248 -205 0 -66
-20 -87 -172 -175 -79 -45 -172 -99 -207 -120 l-64 -37 54 -29 54 -28 -167 -3
c-92 -1 -245 -1 -340 0 l-173 3 328 189 c180 103 327 191 327 195 0 3 -22 17
-48 31 -26 14 -97 54 -159 89 l-111 63 -496 -286 -496 -286 -231 2 -230 3 443
256 c244 140 642 370 885 510 244 140 443 257 443 260 0 6 -4165 2362 -4184
2367 -10 2 -2777 -1586 -2798 -1606 -4 -4 84 -58 195 -121 111 -63 470 -266
797 -451 327 -185 944 -534 1370 -775 426 -241 777 -440 779 -441 2 -2 -839
-4 -1870 -4 l-1875 0 -629 356 c-346 195 -636 353 -645 351 -8 -2 -289 -162
-625 -356 l-609 -351 -231 2 -231 3 636 366 c4661 2688 5659 3264 5685 3275
17 8 43 12 60 9 16 -3 1031 -571 2255 -1263z m-6268 -2728 c90 -21 258 -116
258 -146 0 -16 -58 -95 -75 -102 -9 -3 -48 13 -93 39 -154 89 -324 98 -480 24
-112 -54 -201 -168 -236 -305 -21 -79 -21 -241 -1 -319 65 -251 267 -385 526
-347 85 12 158 43 217 92 20 17 44 30 52 30 9 0 35 -20 58 -43 l43 -44 -56
-51 c-65 -60 -173 -115 -260 -132 -86 -18 -248 -15 -325 5 -212 55 -367 214
-431 440 -29 103 -32 295 -6 395 58 223 210 385 425 455 103 33 269 37 384 9z
m1258 -5 c107 -29 185 -74 265 -154 129 -129 188 -283 188 -490 0 -143 -16
-215 -75 -335 -75 -156 -225 -274 -398 -314 -37 -9 -111 -16 -170 -16 -194 0
-332 53 -454 175 -129 127 -187 278 -187 485 -1 140 18 226 71 335 48 98 108
168 197 229 156 106 362 137 563 85z m3184 4 c33 -8 78 -24 100 -35 57 -29
156 -99 156 -110 0 -16 -61 -96 -78 -103 -8 -3 -45 13 -83 36 -113 68 -230 91
-355 70 -186 -31 -320 -157 -369 -346 -21 -79 -21 -251 0 -329 60 -228 248
-360 486 -343 93 7 168 35 242 87 30 22 62 40 69 40 8 0 33 -20 56 -43 l43
-44 -56 -51 c-62 -57 -150 -104 -240 -127 -81 -21 -270 -21 -350 0 -211 56
-370 220 -431 445 -25 91 -25 310 0 400 86 311 350 492 686 472 36 -2 92 -11
124 -19z m2286 -12 c60 -23 160 -88 160 -103 0 -6 -12 -32 -27 -59 -30 -56
-55 -63 -103 -29 -71 51 -132 70 -220 70 -96 0 -147 -18 -192 -66 -34 -37 -48
-74 -48 -130 0 -105 49 -144 275 -224 155 -54 227 -93 275 -148 55 -62 73
-124 68 -231 -8 -181 -107 -309 -278 -362 -75 -23 -218 -27 -296 -8 -76 18
-168 65 -221 113 l-48 44 22 38 c12 22 33 48 47 58 l25 19 58 -40 c109 -76
138 -87 248 -91 95 -4 103 -2 155 25 34 18 66 45 85 72 27 39 30 50 30 124 0
71 -3 86 -24 114 -31 41 -113 84 -226 118 -117 35 -221 83 -267 124 -21 18
-50 58 -65 89 -25 50 -28 68 -28 152 0 83 3 102 28 151 34 69 109 142 183 176
97 44 273 46 384 4z m-9690 -56 l0 -75 -315 0 -315 0 0 -225 0 -225 270 0 270
0 0 -75 0 -75 -270 0 -270 0 0 -280 0 -280 -90 0 -90 0 0 655 0 655 405 0 405
0 0 -75z m921 -580 c142 -357 259 -651 259 -652 0 -8 -154 -1 -170 7 -11 6
-44 74 -85 180 l-67 170 -291 -2 -291 -3 -62 -158 c-35 -88 -70 -167 -80 -178
-14 -16 -31 -19 -96 -19 -43 0 -78 3 -78 8 -1 4 115 298 257 655 l258 647 94
-2 93 -3 259 -650z m599 75 l0 -580 285 0 285 0 0 -75 0 -75 -375 0 -375 0 0
655 0 655 90 0 90 0 0 -580z m3538 562 c9 -9 184 -234 387 -500 l370 -482 3
500 2 500 80 0 80 0 0 -655 0 -655 -56 0 c-30 0 -63 4 -72 9 -10 5 -188 232
-397 504 l-380 494 -3 -503 -2 -504 -75 0 -75 0 0 655 0 655 60 0 c44 0 65 -5
78 -18z m3655 -630 c142 -356 258 -650 257 -654 0 -5 -35 -8 -78 -8 -64 0 -82
3 -96 19 -9 10 -45 90 -79 177 l-63 159 -291 3 -291 2 -67 -170 c-41 -106 -74
-174 -85 -180 -29 -15 -173 -13 -167 3 3 6 120 301 262 655 l257 642 92 0 91
0 258 -648z m1577 358 l0 -290 350 0 350 0 0 290 0 290 90 0 90 0 0 -655 0
-655 -90 0 -90 0 0 295 0 295 -350 0 -350 0 0 -295 0 -295 -90 0 -90 0 0 655
0 655 90 0 90 0 0 -290z m-8766 -2405 c1026 -580 1871 -1055 1876 -1055 6 0
259 143 563 319 303 175 836 481 1182 681 347 200 819 473 1050 606 l420 242
3 131 3 131 1017 0 c854 0 1013 -2 997 -13 -11 -8 -50 -31 -87 -51 l-68 -38 0
-184 c0 -101 2 -184 4 -184 2 0 188 106 412 235 l409 235 234 0 c129 0 232 -2
230 -4 -2 -1 -292 -169 -644 -371 -352 -202 -656 -380 -675 -395 -19 -14 -141
-87 -270 -162 -1114 -641 -1371 -788 -1401 -801 -19 -8 -770 -438 -1669 -957
-899 -519 -1652 -950 -1672 -958 -34 -13 -42 -13 -75 0 -83 33 -4469 2520
-4490 2546 -34 40 -31 103 5 142 15 16 110 77 212 136 102 58 188 109 192 112
3 4 -81 56 -188 116 -107 60 -206 122 -219 138 -16 19 -25 42 -25 64 0 70 17
85 235 211 137 79 202 121 193 126 -7 4 -31 19 -53 32 l-40 24 236 1 237 0
1866 -1055z m575 319 l1301 -735 768 442 c422 243 996 574 1275 736 l509 293
236 0 c180 -1 232 -3 217 -12 -29 -16 -1484 -854 -2282 -1315 -582 -335 -688
-393 -722 -393 -33 0 -253 121 -1528 841 -818 462 -1501 849 -1518 860 -30 19
-29 19 206 19 l236 0 1302 -736z"/>
<path d="M8745 8008 c-126 -24 -249 -119 -301 -232 -55 -121 -70 -302 -35
-439 26 -98 52 -149 112 -212 165 -175 492 -176 656 -2 62 65 88 115 114 214
36 143 19 336 -41 454 -31 59 -110 141 -170 173 -89 49 -221 66 -335 44z"/>
<path d="M5377 7952 c-4 -17 -56 -160 -117 -318 -61 -158 -109 -289 -107 -291
2 -2 110 -2 239 -1 l235 3 -114 300 c-63 165 -118 309 -122 320 -7 16 -9 15
-14 -13z"/>
<path d="M13177 7960 c-52 -140 -148 -393 -186 -490 l-49 -125 236 -3 c129 -1
237 -1 239 1 2 3 -46 132 -106 288 -60 156 -113 298 -119 314 -7 21 -11 25
-15 15z"/>
<path d="M4187 6228 c-126 -73 -156 -94 -145 -103 7 -7 950 -541 2096 -1188
l2083 -1177 1572 907 c864 499 1589 916 1609 927 l38 21 0 187 0 187 -282
-163 c-156 -89 -870 -501 -1588 -915 -718 -414 -1319 -755 -1336 -758 -19 -3
-44 2 -65 12 -19 10 -882 497 -1918 1082 -1035 585 -1888 1066 -1895 1069 -6
2 -82 -37 -169 -88z"/>
<path d="M4183 5583 c-84 -49 -153 -90 -153 -93 0 -6 4166 -2363 4185 -2368 6
-1 342 188 746 421 404 233 1127 650 1607 926 l872 503 0 184 c0 101 -2 184
-4 184 -3 0 -707 -405 -1565 -900 -858 -494 -1575 -907 -1592 -916 -18 -9 -47
-14 -68 -12 -25 2 -593 318 -1936 1077 -1045 591 -1909 1076 -1920 1078 -12 2
-84 -34 -172 -84z"/>
</g>
</svg>
