<svg version="1.1" id="Layer_1" xmlns="http://www.w3.org/2000/svg" xmlns:xlink="http://www.w3.org/1999/xlink" x="0px" y="0px"
	 width="100%" viewBox="0 0 2000 1500" enable-background="new 0 0 2000 1500" xml:space="preserve">
<path fill="#ED1703" opacity="1.000000" stroke="none" 
	d="
M1394.000000,1501.000000 
	C930.833496,1501.000000 468.166931,1500.994751 5.500433,1501.092773 
	C1.752317,1501.093628 0.906343,1500.250366 0.907081,1496.500366 
	C1.004936,999.500549 1.004925,502.500702 0.907308,5.500879 
	C0.906572,1.753948 1.748001,0.906576 5.499150,0.907122 
	C669.165588,1.003712 1332.832031,1.003690 1996.498535,0.907544 
	C2000.244019,0.907002 2001.093872,1.745882 2001.093140,5.498559 
	C2000.995117,502.498383 2000.994995,999.498230 2001.092529,1496.498047 
	C2001.093262,1500.242310 2000.256104,1501.095947 1996.501953,1501.093872 
	C1795.834595,1500.987671 1595.167358,1501.000000 1394.000000,1501.000000 
z"/>
<path fill="#FFFDFD" opacity="1.000000" stroke="none" 
	d="
M1285.000000,848.954224 
	C1305.944580,848.954224 1326.389160,848.954224 1346.833740,848.954224 
	C1346.922852,849.218445 1347.011963,849.482605 1347.101196,849.746826 
	C1342.745605,852.282532 1338.485229,855.005249 1333.999756,857.285522 
	C1331.197998,858.709839 1330.386841,860.572876 1330.444458,863.597046 
	C1330.625244,873.092957 1330.628418,882.596619 1330.454590,892.092834 
	C1330.382568,896.022461 1331.124512,896.724304 1334.750977,894.610474 
	C1359.612915,880.118591 1384.595337,865.833618 1409.476929,851.375244 
	C1412.469360,849.636353 1415.424194,848.860535 1418.878174,848.897522 
	C1432.025757,849.038452 1445.175781,848.954346 1458.956421,848.954346 
	C1457.563721,851.096924 1455.628906,851.646790 1454.070435,852.547180 
	C1412.880371,876.346313 1371.219116,899.367371 1330.566162,924.049500 
	C1276.406372,956.932190 1221.345337,988.240601 1166.171387,1019.317139 
	C1055.178101,1081.833496 945.359436,1146.379395 834.888855,1209.796021 
	C826.498901,1214.612305 819.994263,1214.845581 811.488708,1210.019897 
	C666.675110,1127.859131 521.697449,1045.987671 376.755676,964.052979 
	C375.886963,963.561951 374.994568,963.109802 374.146179,962.586182 
	C365.647522,957.341614 365.605896,947.074158 374.238037,941.946228 
	C385.248749,935.405334 396.408295,929.115112 407.495392,922.702454 
	C408.909271,921.884705 410.273010,920.980164 412.278900,919.730225 
	C401.904694,913.851868 392.021179,908.249756 382.135529,902.651428 
	C379.964966,901.422180 377.777374,900.222778 375.614258,898.980652 
	C365.217377,893.010498 365.098145,882.818848 375.384125,876.832825 
	C387.457428,869.806702 399.559509,862.830139 412.271210,855.471924 
	C408.888031,853.444702 405.878296,851.641296 402.854797,849.829590 
	C402.995453,849.570801 403.131226,849.099304 403.269165,849.098694 
	C417.764679,849.031433 432.260468,849.024353 446.755768,848.939270 
	C448.944458,848.926453 450.518890,850.185486 452.216858,851.144836 
	C573.997620,919.955444 695.776245,988.769836 817.471680,1057.731079 
	C821.643555,1060.095215 824.549561,1060.006958 828.660095,1057.630249 
	C932.917664,997.347229 1037.257324,937.206238 1141.625244,877.114380 
	C1144.234375,875.612244 1145.510132,874.068542 1145.359497,870.929504 
	C1145.096069,865.442566 1145.660034,859.900574 1145.175171,854.444031 
	C1144.742310,849.572388 1146.693970,848.850220 1151.009644,848.864441 
	C1195.505981,849.010620 1240.003174,848.954224 1285.000000,848.954224 
z"/>
<path fill="#FFFEFE" opacity="1.000000" stroke="none" 
	d="
M544.972778,652.036011 
	C543.171814,649.808411 545.604248,649.892151 546.389038,649.435364 
	C566.514832,637.721497 586.695129,626.101318 606.869141,614.470459 
	C794.776550,506.136261 982.693970,397.819427 1170.549072,289.394684 
	C1176.430420,286.000122 1181.468262,285.991577 1187.319458,289.302551 
	C1333.371460,371.947876 1479.477295,454.497803 1625.565430,537.079285 
	C1637.172363,543.640503 1637.233276,553.595276 1625.748291,560.274780 
	C1613.985474,567.115906 1602.197266,573.913269 1589.680542,581.157959 
	C1598.129395,585.971497 1605.947754,590.436401 1613.777222,594.881958 
	C1617.971069,597.263184 1622.205322,599.573608 1626.383789,601.981201 
	C1636.788940,607.976562 1636.935669,618.117920 1626.639771,624.160217 
	C1615.450806,630.726440 1604.182617,637.157593 1592.953613,643.655579 
	C1591.990967,644.212769 1591.062988,644.829834 1589.779297,645.631165 
	C1593.175537,647.622009 1596.245605,649.421692 1600.236694,651.761230 
	C1577.311768,651.761230 1555.511475,651.761230 1532.421997,651.761230 
	C1555.150879,638.632324 1576.793579,626.130859 1599.097656,613.247314 
	C1588.166138,607.052856 1577.802246,601.147400 1567.398560,595.312988 
	C1565.356079,594.167542 1563.977173,596.014404 1562.482666,596.873535 
	C1531.767822,614.529846 1501.061279,632.200684 1470.401001,649.951477 
	C1467.851196,651.427795 1465.350220,652.114746 1462.407104,652.091003 
	C1448.951538,651.982422 1435.494751,652.043335 1421.714355,651.172485 
	C1480.620117,617.201233 1539.525879,583.230042 1599.109863,548.867676 
	C1585.822021,541.331848 1573.301880,534.211365 1560.763306,527.123535 
	C1435.229004,456.160736 1309.680908,385.222290 1184.206055,314.154388 
	C1180.361816,311.976990 1177.672729,312.055237 1173.866455,314.256531 
	C1083.876587,366.299408 993.800659,418.193390 903.744629,470.121796 
	C902.178711,471.024719 900.663330,472.015381 898.508545,473.345123 
	C1003.623352,532.811340 1108.253906,592.003540 1212.884277,651.195740 
	C1212.821899,651.478333 1212.759521,651.760925 1212.697021,652.043518 
	C1211.121338,652.043518 1209.545654,652.043518 1207.969971,652.043518 
	C1086.984497,652.043518 965.998962,652.033813 845.013489,652.092712 
	C841.575378,652.094360 838.591064,651.399353 835.583069,649.693054 
	C796.088745,627.288940 756.524109,605.008667 717.052490,582.564880 
	C713.927551,580.788025 711.727661,580.772156 708.546021,582.620300 
	C670.001282,605.010376 631.329529,627.181763 592.751465,649.514587 
	C589.594177,651.342285 586.492554,652.140808 582.875366,652.099060 
	C570.376526,651.954529 557.875061,652.042419 544.972778,652.036011 
z"/>
<path fill="#FFFDFC" opacity="1.000000" stroke="none" 
	d="
M865.614258,998.578857 
	C853.638855,1005.507080 841.932434,1012.171753 830.304443,1018.970337 
	C825.357056,1021.863037 820.694153,1021.761780 815.717285,1018.945496 
	C717.016663,963.092102 618.287476,907.289062 519.567261,851.470154 
	C518.614563,850.931519 517.705139,850.316345 515.518372,848.953308 
	C528.289124,848.953308 539.696045,849.341309 551.061096,848.819397 
	C558.878235,848.460449 565.445374,850.559387 572.190735,854.388611 
	C654.469482,901.097290 736.889404,947.557068 819.187317,994.232056 
	C822.380554,996.043030 824.466797,995.548462 827.246826,993.943420 
	C909.481934,946.464600 991.757019,899.054993 1073.980225,851.555481 
	C1077.130737,849.735413 1080.204102,848.854431 1083.836548,848.895325 
	C1096.955078,849.042786 1110.076050,848.953308 1123.545044,849.870911 
	C1037.668335,899.370422 951.791687,948.869873 865.614258,998.578857 
z"/>
<path fill="#FFFCFB" opacity="1.000000" stroke="none" 
	d="
M939.764282,789.731079 
	C923.469971,813.240845 894.589966,822.898438 866.073059,814.609863 
	C840.153320,807.076172 822.938110,784.059631 821.843079,755.676147 
	C821.454773,745.610535 822.098511,735.708679 825.340881,726.096985 
	C833.932617,700.627747 855.294495,684.819092 882.452393,683.815857 
	C912.378418,682.710388 936.137817,697.017151 945.580933,723.108154 
	C953.802124,745.822937 952.471558,768.223328 939.764282,789.731079 
z"/>
<path fill="#FFFBFB" opacity="1.000000" stroke="none" 
	d="
M974.794006,745.999878 
	C974.794006,727.004639 974.888245,708.508545 974.714966,690.014893 
	C974.680115,686.298706 975.403992,685.020996 979.514709,684.886841 
	C985.301147,684.697937 989.016785,686.684143 992.510681,691.284851 
	C1015.473572,721.521790 1038.700684,751.558105 1061.844727,781.657471 
	C1062.704102,782.775146 1063.595703,783.867920 1065.157349,785.835510 
	C1065.157349,782.255859 1065.157593,779.843750 1065.157471,777.431580 
	C1065.155884,748.272461 1065.228882,719.112854 1065.063599,689.954651 
	C1065.041504,686.067078 1065.978027,684.877258 1069.985107,684.965576 
	C1080.839355,685.204773 1080.843750,685.006958 1080.843750,695.918762 
	C1080.843750,733.409058 1080.872681,770.899475 1080.777344,808.389526 
	C1080.770996,810.843262 1082.303101,814.906738 1079.598633,815.512085 
	C1075.463013,816.437683 1070.585693,817.268066 1066.723511,813.891541 
	C1065.488159,812.811523 1064.526001,811.402100 1063.513794,810.085815 
	C1040.063843,779.591797 1016.624512,749.089661 993.181885,718.590027 
	C992.405090,717.579346 991.614563,716.579224 990.153992,714.707336 
	C990.153992,718.130737 990.153870,720.530396 990.153992,722.930054 
	C990.155518,752.422424 990.078552,781.915344 990.254578,811.406677 
	C990.277466,815.245178 989.176819,816.088501 985.517944,816.023926 
	C974.796936,815.834412 974.794006,816.001770 974.794006,805.484253 
	C974.794006,785.822815 974.794006,766.161316 974.794006,745.999878 
z"/>
<path fill="#FFFAF9" opacity="1.000000" stroke="none" 
	d="
M1581.965820,704.000610 
	C1581.966064,698.501648 1582.068726,693.499634 1581.922729,688.504822 
	C1581.851318,686.060730 1582.381348,685.088440 1585.157837,684.983948 
	C1599.862183,684.430298 1599.858887,684.338318 1599.859009,699.077637 
	C1599.859131,736.404053 1599.799316,773.730652 1599.948364,811.056458 
	C1599.963867,814.955811 1599.027954,816.406738 1595.015991,816.004944 
	C1590.907959,815.593506 1585.399658,817.316040 1582.954712,815.231018 
	C1580.083374,812.782288 1582.051636,807.117676 1582.013184,802.861694 
	C1581.887329,788.865479 1581.877686,774.866333 1582.031860,760.870667 
	C1582.067505,757.653687 1581.608398,756.221619 1577.828125,756.257263 
	C1557.167114,756.451904 1536.502686,756.437134 1515.841187,756.268311 
	C1512.177246,756.238342 1511.438354,757.534729 1511.467285,760.880676 
	C1511.612305,777.709656 1511.415405,794.541992 1511.622803,811.369629 
	C1511.669434,815.163025 1510.593262,816.352173 1506.859741,816.004333 
	C1502.732788,815.619934 1497.176147,817.362549 1494.761841,815.270752 
	C1491.952759,812.836853 1493.848022,807.145020 1493.840210,802.880310 
	C1493.771484,765.220764 1493.853149,727.560852 1493.719604,689.901672 
	C1493.706177,686.098389 1494.569214,684.510498 1498.594482,685.006836 
	C1502.688843,685.511719 1508.039917,683.329590 1510.652954,685.813538 
	C1513.320312,688.349365 1511.457031,693.725891 1511.490845,697.847900 
	C1511.602905,711.511108 1511.618530,725.176697 1511.471069,738.839233 
	C1511.436157,742.072510 1511.973022,743.536133 1515.732666,743.503784 
	C1536.560547,743.324829 1557.391357,743.348816 1578.219849,743.489929 
	C1581.410156,743.511475 1582.072754,742.458923 1582.031616,739.493164 
	C1581.870239,727.830872 1581.965698,716.165039 1581.965820,704.000610 
z"/>
<path fill="#FFFBFA" opacity="1.000000" stroke="none" 
	d="
M589.635254,787.245972 
	C593.466187,796.835022 597.124695,806.079041 601.018433,815.917542 
	C596.096008,815.917542 591.678711,815.976318 587.263855,815.898926 
	C583.731934,815.837158 582.042542,813.502991 580.888672,810.499329 
	C577.434631,801.507751 573.828857,792.572937 570.496887,783.536865 
	C569.547485,780.962280 568.320435,779.991272 565.485840,780.014648 
	C548.334961,780.156189 531.181458,780.166199 514.030823,780.005920 
	C511.145813,779.979004 509.978302,781.030884 509.047638,783.550171 
	C505.883118,792.116333 502.306580,800.533691 499.277039,809.145020 
	C497.516876,814.148132 494.583832,816.449097 489.241699,815.985596 
	C485.945068,815.699463 482.603363,815.932556 479.324585,815.932556 
	C478.769684,813.879028 479.900208,812.469543 480.492584,810.983582 
	C496.666351,770.413025 512.937073,729.880920 528.987427,689.261719 
	C530.358704,685.791443 532.113708,684.765503 535.558594,685.010193 
	C539.864990,685.316101 545.209717,683.687073 548.239197,685.701355 
	C551.241211,687.697266 552.008057,693.149475 553.607300,697.145020 
	C565.579712,727.055420 577.515503,756.980469 589.635254,787.245972 
z"/>
<path fill="#FFFBFA" opacity="1.000000" stroke="none" 
	d="
M1285.770020,790.847168 
	C1283.207153,797.394226 1280.646484,803.529114 1278.412598,809.780823 
	C1276.856079,814.136963 1274.211182,816.281860 1269.467163,815.978821 
	C1265.833984,815.746826 1262.174194,815.932739 1257.928955,815.932739 
	C1263.019653,803.206116 1267.947021,790.904419 1272.861816,778.597656 
	C1284.687988,748.984558 1296.576782,719.395935 1308.242798,689.719849 
	C1309.691528,686.034363 1311.508301,684.870178 1315.447998,684.957275 
	C1328.228027,685.239685 1328.231812,685.055725 1332.881592,696.698730 
	C1348.033569,734.638550 1363.186646,772.577942 1378.334229,810.519531 
	C1378.941895,812.041504 1379.499512,813.583374 1380.354614,815.839050 
	C1375.175781,815.839050 1370.460815,816.053528 1365.776855,815.765503 
	C1362.516602,815.565063 1361.180054,812.807312 1360.127686,810.095093 
	C1356.883911,801.734741 1353.412354,793.450317 1350.542358,784.962891 
	C1349.175293,780.920044 1347.050781,779.930176 1343.023560,779.989563 
	C1327.206665,780.222717 1311.380249,780.274170 1295.566040,779.962769 
	C1291.164673,779.876221 1288.732300,780.995605 1287.841187,785.363953 
	C1287.481201,787.128662 1286.571533,788.781311 1285.770020,790.847168 
z"/>
<path fill="#FFFCFB" opacity="1.000000" stroke="none" 
	d="
M1165.184692,805.824707 
	C1143.868774,788.642334 1138.362427,765.923523 1140.910645,740.330566 
	C1143.485840,714.468262 1160.242432,693.598267 1184.989868,686.680420 
	C1206.531738,680.658630 1227.149170,682.549561 1245.532227,696.877136 
	C1248.573608,699.247498 1249.309204,700.866821 1246.688721,704.283508 
	C1240.909302,711.819336 1241.053833,712.005310 1233.362793,706.999268 
	C1201.878296,686.506042 1162.810913,705.061707 1158.838989,742.317871 
	C1157.653320,753.439636 1158.528931,764.222046 1162.822510,774.624023 
	C1174.006592,801.720215 1209.239136,811.341736 1232.754883,793.716492 
	C1234.085815,792.718994 1235.396362,791.685303 1236.640747,790.583130 
	C1239.078735,788.423706 1241.147949,788.557190 1243.546143,790.911926 
	C1250.316772,797.559631 1250.359741,798.155945 1242.935547,804.191040 
	C1221.962646,821.239929 1188.868286,822.026855 1165.184692,805.824707 
z"/>
<path fill="#FFFBFB" opacity="1.000000" stroke="none" 
	d="
M718.424133,773.348511 
	C730.332336,802.462524 766.155884,811.805542 790.553467,792.458069 
	C795.911621,788.209106 802.801208,790.323181 805.085632,796.920959 
	C805.741943,798.816406 804.033875,799.499939 803.106201,800.445374 
	C794.154968,809.568237 783.232971,814.884033 770.621155,816.514099 
	C758.776550,818.044983 746.984924,817.781250 735.649780,813.439026 
	C713.040222,804.777954 701.314819,787.369568 697.553650,764.290405 
	C694.249695,744.016479 697.199219,724.714478 709.895569,707.849609 
	C720.258484,694.084229 734.505493,686.590027 751.351501,684.385498 
	C769.840942,681.966064 787.168701,684.948547 802.124573,697.210327 
	C804.863586,699.455994 805.814270,701.181335 803.021240,703.884277 
	C802.198547,704.680481 801.665466,705.773071 800.983154,706.717896 
	C797.753540,711.190369 796.176147,711.612244 791.575928,708.293152 
	C778.988770,699.211365 765.019287,697.165894 750.219543,700.332031 
	C731.079224,704.426819 717.468140,720.356079 715.115784,740.983154 
	C713.876282,751.852478 714.401001,762.603516 718.424133,773.348511 
z"/>
<path fill="#FFFBFB" opacity="1.000000" stroke="none" 
	d="
M1454.577026,809.600342 
	C1434.328979,821.845581 1406.994019,819.110840 1389.748657,803.502380 
	C1387.316895,801.301453 1386.007935,799.434387 1388.630127,796.579956 
	C1389.401611,795.740173 1389.832397,794.594238 1390.460449,793.614929 
	C1393.499390,788.875549 1395.741211,788.382324 1400.158936,791.734497 
	C1404.682861,795.167175 1409.310791,798.412903 1414.694214,800.340881 
	C1423.474121,803.485107 1432.329834,803.704956 1440.993408,800.078552 
	C1450.146362,796.247314 1454.205688,788.853271 1454.519287,779.210632 
	C1454.814819,770.125732 1449.620483,764.653442 1441.948730,761.223206 
	C1437.416748,759.196838 1432.604004,757.793884 1427.904541,756.148132 
	C1423.672852,754.666260 1419.355347,753.405884 1415.193359,751.752075 
	C1398.818481,745.245605 1391.517090,734.606018 1392.072754,718.323425 
	C1392.588013,703.224548 1402.438354,690.310242 1417.977783,685.888306 
	C1434.540649,681.175171 1450.284424,683.477966 1464.397095,693.892639 
	C1468.910889,697.223694 1468.704834,699.014587 1463.781128,705.823547 
	C1461.201904,709.390076 1458.487183,708.340820 1455.643433,706.291138 
	C1446.906250,699.993591 1437.337891,696.890198 1426.523438,698.982666 
	C1424.100708,699.451416 1421.639404,700.139465 1419.428833,701.208313 
	C1412.541870,704.538269 1408.965210,710.137085 1408.582764,717.825500 
	C1408.215454,725.205505 1411.967896,730.122070 1417.932739,733.673584 
	C1422.669556,736.493958 1427.914185,738.159302 1433.092896,739.969604 
	C1438.419556,741.831482 1443.776611,743.646423 1448.974121,745.830139 
	C1468.385376,753.985413 1475.311035,768.874329 1469.305420,789.034058 
	C1466.791870,797.471802 1462.072021,804.297058 1454.577026,809.600342 
z"/>
<path fill="#FEF9F8" opacity="1.000000" stroke="none" 
	d="
M473.786255,747.414917 
	C473.814209,759.768799 473.814209,759.768738 461.909424,759.768799 
	C449.576233,759.768799 437.240631,759.906006 424.911346,759.686279 
	C421.170258,759.619568 419.835175,760.395081 419.905731,764.495117 
	C420.175354,780.156921 419.923981,795.827148 420.087799,811.491821 
	C420.122375,814.798340 419.545288,816.444824 415.823639,815.983582 
	C411.421875,815.438110 405.691650,817.846802 402.890839,814.961609 
	C400.336090,812.329834 402.172943,806.708862 402.167206,802.411743 
	C402.117157,764.912292 402.201508,727.412476 402.045288,689.913574 
	C402.028778,685.956116 403.076904,684.938416 407.005432,684.969116 
	C430.837006,685.155701 454.671173,685.130127 478.503357,684.986023 
	C481.923401,684.965393 483.050995,685.755066 483.003479,689.353577 
	C482.868408,699.582703 483.042206,699.584961 472.884613,699.585022 
	C456.718140,699.585144 440.550598,699.683777 424.386047,699.506409 
	C420.962860,699.468872 419.863098,700.286194 419.927521,703.859497 
	C420.152740,716.355286 420.122101,728.859192 419.938812,741.356384 
	C419.893372,744.452515 420.739380,745.270203 423.817749,745.237366 
	C438.815857,745.077026 453.817017,745.114380 468.815826,745.236450 
	C470.493073,745.250061 473.026001,743.852173 473.786255,747.414917 
z"/>
<path fill="#FFFEFE" opacity="1.000000" stroke="none" 
	d="
M617.651001,743.999756 
	C617.651123,725.514160 617.727600,707.528076 617.582214,689.543701 
	C617.555359,686.227051 618.198425,684.607849 621.893799,685.027161 
	C626.148682,685.509949 631.741394,683.248291 634.383484,685.910889 
	C637.015930,688.563843 635.168274,694.130371 635.176453,698.410583 
	C635.238525,730.884338 635.285889,763.358643 635.114502,795.831604 
	C635.093140,799.871887 635.921997,801.184509 640.213318,801.108826 
	C656.028992,800.829895 671.854126,801.116577 687.671997,800.908081 
	C691.266724,800.860718 692.060242,801.934509 692.013123,805.363892 
	C691.867859,815.922729 692.019470,815.924805 681.329651,815.924805 
	C662.011902,815.924805 642.690430,815.718628 623.378845,816.064331 
	C618.312622,816.155029 617.490356,814.543030 617.541870,809.945923 
	C617.786255,788.132874 617.651062,766.315552 617.651001,743.999756 
z"/>
<path fill="#ED1905" opacity="1.000000" stroke="none" 
	d="
M887.671814,1114.662842 
	C973.395996,1065.232422 1058.814819,1016.004333 1144.151367,966.823669 
	C1145.907227,967.905762 1145.248413,969.381348 1145.256592,970.568542 
	C1145.319580,979.732361 1145.041870,988.906555 1145.402710,998.056580 
	C1145.568970,1002.274170 1144.231201,1004.544312 1140.558350,1006.652466 
	C1076.658813,1043.328735 1012.845703,1080.155273 949.012695,1116.947388 
	C908.234131,1140.451172 867.439758,1163.927490 826.708008,1187.512085 
	C824.098572,1189.022949 822.185364,1189.177856 819.477173,1187.645142 
	C681.405396,1109.505737 543.288208,1031.446411 405.177826,953.375122 
	C404.746155,953.131042 404.341858,952.838501 403.707764,952.428162 
	C405.638367,949.690857 408.793304,948.840027 411.377747,947.281433 
	C418.354919,943.073730 425.566620,939.251038 432.492615,934.964417 
	C435.167511,933.308777 437.095764,933.595276 439.678802,935.059875 
	C493.204773,965.410400 546.776855,995.679565 600.346313,1025.953491 
	C672.014587,1066.455444 743.705566,1106.917358 815.325073,1147.505493 
	C820.702026,1150.552734 825.444519,1150.638062 830.754944,1147.534302 
	C849.564758,1136.540649 868.486938,1125.739258 887.671814,1114.662842 
z"/>
<path fill="#ED1905" opacity="1.000000" stroke="none" 
	d="
M1080.629150,976.632812 
	C996.028992,1025.430298 911.722351,1074.003052 827.485352,1122.696411 
	C824.190002,1124.601196 821.862305,1124.598999 818.552185,1122.725220 
	C681.642578,1045.221924 544.673157,967.824280 407.715424,890.406067 
	C406.288910,889.599670 404.917908,888.695007 403.115295,887.586792 
	C413.706940,881.498169 423.945221,875.720215 434.055542,869.726440 
	C436.642822,868.192627 438.137360,869.915039 439.892059,870.905518 
	C484.499756,896.086182 529.085815,921.305176 573.679993,946.509521 
	C654.180664,992.008179 734.709229,1037.457642 815.138062,1083.082886 
	C821.409546,1086.640503 826.495422,1085.640259 832.316772,1082.277954 
	C934.860718,1023.049072 1037.470459,963.934204 1140.067017,904.796265 
	C1141.489746,903.976196 1142.923706,903.175720 1145.291626,901.833679 
	C1145.291626,906.654663 1145.291626,910.841919 1145.291626,915.029236 
	C1145.291504,921.861023 1145.145752,928.697449 1145.360107,935.522522 
	C1145.451172,938.423279 1144.399780,939.949097 1141.924805,941.359192 
	C1121.548950,952.968689 1101.254150,964.720398 1080.629150,976.632812 
z"/>
<path fill="#ED1804" opacity="1.000000" stroke="none" 
	d="
M848.131958,782.782959 
	C837.207275,763.244995 836.775024,743.311646 845.341736,723.489685 
	C852.939026,705.911011 871.948059,696.619446 892.003540,699.280212 
	C912.964233,702.061157 927.000427,715.106567 930.889221,735.668701 
	C932.983521,746.742737 933.005066,757.836487 930.029724,768.794678 
	C922.849426,795.239319 901.173523,803.810059 879.947327,801.545776 
	C866.726685,800.135437 855.866699,794.379272 848.131958,782.782959 
z"/>
<path fill="#ED1A06" opacity="1.000000" stroke="none" 
	d="
M529.266235,731.320923 
	C532.946167,721.848877 536.741211,712.831970 539.475769,702.914551 
	C547.702515,724.419800 555.752747,745.463623 564.085449,767.245972 
	C557.544495,767.245972 551.480042,767.245972 545.415588,767.245972 
	C537.083496,767.245911 528.742432,767.015259 520.422729,767.336487 
	C515.785156,767.515503 515.647949,766.131409 517.201355,762.347900 
	C521.366028,752.204041 525.172791,741.913330 529.266235,731.320923 
z"/>
<path fill="#ED1A06" opacity="1.000000" stroke="none" 
	d="
M1320.114990,705.284790 
	C1327.391602,724.580322 1334.479736,743.556335 1341.863037,762.416870 
	C1343.440674,766.446838 1342.870483,767.399414 1338.516113,767.330505 
	C1324.212158,767.104370 1309.902588,767.245544 1294.855713,767.245544 
	C1296.284424,763.587585 1297.590698,760.441589 1298.749756,757.242249 
	C1305.026489,739.916077 1312.667480,723.100159 1318.111328,705.462769 
	C1318.457764,704.340576 1318.737671,702.764343 1320.114990,705.284790 
z"/>
</svg>