<svg version="1.1" id="Layer_1" xmlns="http://www.w3.org/2000/svg" xmlns:xlink="http://www.w3.org/1999/xlink" x="0px" y="0px"
	 width="100%" viewBox="0 0 60 60" enable-background="new 0 0 60 60" xml:space="preserve">
<path fill="#FA5252" opacity="1.000000" stroke="none" 
	d="
M49.000000,1.000000 
	C52.921982,1.000000 56.843967,1.000000 61.000000,1.000000 
	C61.000000,4.678595 61.000000,8.360122 60.720379,12.179727 
	C60.066711,12.642319 59.479820,12.897959 59.349308,13.301278 
	C54.207008,29.192484 49.106205,45.097115 44.000000,61.000000 
	C41.629444,61.000000 39.258884,61.000000 36.789688,60.745918 
	C34.458504,54.812187 32.367958,49.070847 29.937704,43.477089 
	C28.580164,40.352425 27.375484,35.958614 24.856920,34.766079 
	C17.230816,31.155132 8.997014,28.827606 1.000000,26.000000 
	C1.000000,23.629442 1.000000,21.258884 1.268261,18.788149 
	C2.676203,18.110636 3.764679,17.380152 4.963388,16.979359 
	C18.870737,12.329393 32.802364,7.751832 46.696636,3.063452 
	C47.594307,2.760549 48.238106,1.705284 49.000000,1.000000 
z"/>
<path fill="#000000" opacity="1.000000" stroke="none" 
	d="
M1.000000,26.468658 
	C8.997014,28.827606 17.230816,31.155132 24.856920,34.766079 
	C27.375484,35.958614 28.580164,40.352425 29.937704,43.477089 
	C32.367958,49.070847 34.458504,54.812187 36.345524,60.745918 
	C24.406744,61.000000 12.813488,61.000000 1.000000,61.000000 
	C1.000000,49.646721 1.000000,38.292019 1.000000,26.468658 
z"/>
<path fill="#000000" opacity="1.000000" stroke="none" 
	d="
M48.531342,1.000000 
	C48.238106,1.705284 47.594307,2.760549 46.696636,3.063452 
	C32.802364,7.751832 18.870737,12.329393 4.963388,16.979359 
	C3.764679,17.380152 2.676203,18.110636 1.268261,18.343987 
	C1.000000,12.371754 1.000000,6.743508 1.000000,1.000000 
	C16.687399,1.000000 32.375042,1.000000 48.531342,1.000000 
z"/>
<path fill="#000000" opacity="1.000000" stroke="none" 
	d="
M44.470451,61.000000 
	C49.106205,45.097115 54.207008,29.192484 59.349308,13.301278 
	C59.479820,12.897959 60.066711,12.642319 60.720379,12.658902 
	C61.000000,28.890629 61.000000,44.781258 61.000000,61.000000 
	C55.651440,61.000000 50.296173,61.000000 44.470451,61.000000 
z"/>
</svg>